<?xml version="1.0" encoding="UTF-8"?>
<svg id="Layer_1" data-name="Layer 1" xmlns="http://www.w3.org/2000/svg" viewBox="0 0 1125 2436">
  <defs>
    <style>
      .cls-1 {
        fill: #f2f2f2;
      }
    </style>
  </defs>
  <rect width="1125" height="2436"/>
  <g>
    <path class="cls-1" d="M287.41,972.2c-3.28,15.03-7.27,29.39-9.36,44.03-2.53,17.53-.69,34.8,9.05,50.34,7.61,12.14,18.35,19.89,32.82,21.33,21.85,2.18,37.32-11.38,40.11-34.75,.31-2.64,.49-5.31,.9-9.95,13.2,15.8,19.26,32.1,16.56,50.72-1.65,11.41-5.46,22.47-7.99,33.78-1.75,7.77-3.85,15.62-4.2,23.5-.54,12.24,7.92,22.14,19.33,24.52,13.23,2.74,24.07-2.44,28.68-15.02,2.62-7.14,3.52-14.95,4.92-22.51,.62-3.36,.57-6.87,1.79-10.25,12.94,30.95,17.36,62.15-.94,92.39-21.47,35.51-54.86,50.91-95.61,53.01,29.77-13.72,54.03-31.51,54.01-70-2.44,3.21-3.81,5.51-5.69,7.32-4.73,4.56-9.1,9.88-14.67,13.09-13.63,7.87-25.59,2.25-28.44-13.18-2.29-12.47-3.28-25.18-5.17-37.73-4.06-27.03-16.25-49.49-38.32-67.26,3.81,13.21,8.05,25.49,10.82,38.1,3.61,16.44,3.45,32.96-3.4,48.8-5.95,13.75-15.03,24.4-31.07,24.9-16.11,.49-25.65-9.78-32.36-23.17-1.56-3.1-2.77-6.38-4.61-9.31-.23,40.35,18.85,68.91,55.33,87.88-39.5-4.16-79.05-28.33-92.87-64.8-14.27-37.66-9.45-73.75,11.05-109.73,1.61,10.49,2.24,19.32,4.42,27.71,3.92,15.02,14.74,21.33,29.43,18.26,12.87-2.69,21.07-14.64,19.25-28.68-2.9-22.4-7.82-44.72-8.72-67.19-1.37-34.07,16.3-58.51,44.96-76.12h-.02Z"/>
    <path class="cls-1" d="M730.52,1081.37c1.54-13.07,3.29-26.15,4.54-39.26,1.35-14.01,1.91-28.11,3.55-42.08,.35-2.91,4.02-5.43,6.16-8.12,2.38,2.43,6.42,4.58,6.88,7.33,4.87,29.03,9.19,58.16,13.65,87.26l3.31-.07c.99-7.06,2.22-14.1,2.91-21.19,2.81-29.11,5.36-58.26,8.29-87.38,.26-2.58,2.05-6.16,4.11-7.07,2.2-.99,6.47-.28,8.17,1.39,1.46,1.42,.81,5.27,.64,8.01-.57,9.35-.88,18.73-2.12,27.99-4.18,31.18-8.95,62.29-12.99,93.48-1.53,11.76-1.42,23.7-2.71,35.5-.33,2.97-3.16,5.65-4.84,8.46-2.13-2.17-5.62-4.04-6.21-6.57-4.37-18.78-8.36-37.66-12.07-56.6-2.06-10.47-3.38-21.1-5.05-31.66-.73,0-1.47,.02-2.2,.03-2.2,26.03-4.4,52.06-6.57,78.1-.29,3.57,.28,7.39-.81,10.68-.8,2.41-3.4,5.24-5.7,5.79-1.68,.4-4.63-2.25-6.17-4.21-1.25-1.58-1.47-4.11-1.77-6.26-6.76-50.04-13.37-100.1-20.37-150.13-.69-4.91,.59-8.15,4.79-8.64,2.1-.24,6.21,2.91,6.73,5.17,3.35,14.48,6.61,29.04,8.65,43.75,2.58,18.59,3.99,37.33,5.9,55.99,.43,.1,.85,.21,1.28,.31h.02Z"/>
    <path class="cls-1" d="M929.66,1146.39c-19.32-44.62-28.58-92.51-42.48-138.88-.71,.07-1.4,.12-2.12,.19,1.2,37.19,2.39,74.37,3.61,111.57,.17,5.53,.59,11.05,.75,16.56,.16,5.65-3.81,7.49-8.17,6.59-1.82-.38-3.97-4.47-4.07-6.94-.55-14.62-.68-29.25-.71-43.89-.09-35.91-.03-71.82-.03-107.73,0-1.11-.23-2.38,.21-3.28,1.25-2.51,2.81-4.89,4.23-7.3,1.94,1.72,4.73,3.07,5.67,5.24,4.04,9.35,8.38,18.71,11.08,28.49,8.72,31.65,16.77,63.48,25.09,95.23,.73,2.81,1.53,5.6,2.27,8.41,.81-.07,1.63-.14,2.44-.21v-73.64c0-19.63,.05-39.26-.02-58.89-.02-4.82,1.35-8.38,6.85-8.18,5.79,.21,6.24,4.72,6.1,8.96-.73,21.78-2.01,43.56-2.36,65.35-.47,29.57-.07,59.15-.47,88.73-.07,4.58-2.34,9.12-3.59,13.68-1.42-.02-2.84-.03-4.27-.07h-.02Z"/>
    <path class="cls-1" d="M1025.62,1053.24c1.92,21.54-3.45,43.56-15.05,63.93-3.92,6.87-8.98,13.23-14.37,19.02-5.32,5.72-12.69,8.36-20.39,6.12-2.57-.75-5.91-5.15-5.77-7.72,.59-11.15,3.61-22.26,3.43-33.36-.43-29.77-1.86-59.53-3.33-89.27-.36-7.37-2.2-14.69-3.71-21.97-2.36-11.41-.35-14.36,11.31-15.8,18.26-2.25,31.07,4.49,39.08,21.17,8.48,17.69,9.4,36.67,8.81,57.86h0Zm-40.26,75.71c9.5-6.05,16.98-16.06,21.47-29.89,7.37-22.66,9.83-46.04,5.9-69.5-1.73-10.33-5.98-20.55-10.75-29.96-4.21-8.29-12.45-12.09-23.1-11.83,2.15,47.03,4.3,93.79,6.49,141.17v.02Z"/>
    <path class="cls-1" d="M593.99,1055.9v76.23c0,2.48,.45,5.25-.49,7.35-.85,1.89-3.47,4.44-5.01,4.25-2.15-.26-4.87-2.41-5.79-4.46-1.04-2.32-.43-5.43-.43-8.18,.17-48.92,.36-97.83,.55-146.73,.05-11.11,2.79-13.02,13.65-9.43,13.25,4.37,22.33,21.12,20.08,38.96-1.02,8.12-3.1,16.35-6.31,23.84-3.36,7.86-4.23,15.5-2.08,23.37,5.9,21.52,12.24,42.93,18.4,64.38,.92,3.17,2.71,6.43,2.43,9.52-.28,3.29-2.01,8.69-4.02,9.16-5.31,1.2-8.31-2.72-9.28-8.06-2.17-11.93-3.88-23.98-6.88-35.7-3.87-15.12-8.79-29.98-13.27-44.95-.52,.16-1.04,.31-1.56,.47l.02-.02Zm.5-72.12v53.7c12.71-11.6,13.35-41.72,0-53.7Z"/>
    <path class="cls-1" d="M660.1,988.46v61.14c3.64-.52,6.83-1.91,9.26-1.08,2.84,.97,5.01,3.9,7.47,5.98-2.27,2.25-4.77,6.61-6.8,6.42-9.24-.92-9.52,4.08-9.4,11.01,.31,19.3,.1,38.62,.1,59.16,6.12,0,11.86-.54,17.41,.23,2.67,.36,4.99,3.21,7.47,4.94-1.99,2.03-3.8,5.53-6.02,5.83-8.12,1.06-16.37,1.49-24.55,1.27-5.88-.16-6.23-4.99-6.21-9.76,.07-32.32,.31-64.66-.09-96.98-.19-15.95-1.56-31.91-2.6-47.86-.47-7.06,3.29-12.38,10.37-13.16,4.89-.54,10.04-1.3,14.72-.31,2.65,.57,4.6,4.49,6.85,6.9-2.41,1.92-4.54,4.65-7.3,5.55-3.24,1.08-7.02,.56-10.68,.75l-.02-.02Z"/>
    <path class="cls-1" d="M482,1047.21c6.4,1.72,16.54-6.33,17.55,4.54,.97,10.6-10.8,5.81-17.7,9.66,.55,9.17,1.14,19.27,1.79,29.36,.83,12.94,1.96,25.87,2.43,38.82,.19,5.1,1.99,12.61-6.26,12.88-8.83,.29-7.21-7.77-7.42-12.99-1.11-27.59-1.58-55.19-2.69-82.78-.76-19.02-2.06-38.03-3.49-57.01-.43-5.67-.5-11.79,5.48-13.13,7.18-1.6,14.91-.88,22.39-.57,.78,.03,2.38,4.58,1.75,6.36-.61,1.72-3.5,3.36-5.6,3.71-11.95,1.96-11.96,1.82-11.22,13.56,1.02,15.92,2.03,31.84,3.03,47.56l-.03,.02Z"/>
    <path class="cls-1" d="M531.32,988.41c-2.34,0-4.09,.45-5.39-.1-1.8-.78-4.51-2.25-4.58-3.55-.1-2.03,1.32-5.65,2.72-5.98,8.22-1.94,16.58-3.49,24.99-4.25,1.54-.14,4.44,3.81,4.82,6.19,.23,1.44-3.31,5.06-4.94,4.94-8.22-.62-8.15,4.34-7.89,10.02,1.8,37.77,3.57,75.53,5.25,113.32,.28,6.29,.03,12.61,.03,18.26,1.35,.97,1.75,1.49,2.2,1.56,5.06,.68,12.1-.02,11.24,7.28-.29,2.48-7.44,5.44-11.67,5.88-7.02,.71-14.31-.03-21.35-1.09-2.17-.33-3.88-3.69-5.81-5.69,2.25-1.49,4.58-4.35,6.76-4.25,6.83,.33,7.87-3.24,7.6-8.7-1.02-20.67-2.15-41.36-2.84-62.04-.66-19.58-.81-39.17-1.16-58.77-.07-4.11,0-8.22,0-13.02h.02Z"/>
    <path class="cls-1" d="M842.99,1126.7c3.71,3.12,10.68,6.47,10.49,9.33-.47,6.95-7.8,6.24-13.16,6.23-6.59-.03-13.25-.26-19.72-1.37-2.22-.38-3.94-3.66-5.9-5.62,2.24-1.53,4.53-4.4,6.68-4.32,6.71,.28,7.98-3.03,7.7-8.62-1.02-20.39-2.13-40.8-2.81-61.21-.66-20.13-.83-40.28-1.2-60.41-.07-3.83,0-7.66,0-12.28-2.29,0-4.02,.45-5.32-.1-1.8-.76-4.56-2.18-4.65-3.49-.14-2.03,1.25-5.69,2.62-6.02,8.22-1.96,16.58-3.52,24.97-4.3,1.56-.14,4.87,3.92,4.87,6.05,0,1.79-3.69,5.15-5.65,5.08-7.23-.24-7.37,3.97-7.13,9.12,1.79,38.32,3.59,76.64,5.27,114.97,.26,6.02,.03,12.07,.03,18.1,.97-.38,1.92-.76,2.9-1.14h0Z"/>
    <path class="cls-1" d="M650.65,1208.8c1.54,18.69-2.91,35.93-14.39,50.62-3.49,4.46-9.92,7.35-15.59,9.12-3.99,1.25-7.27-1.47-5.15-7.06,1.23-3.28,1.86-7.04,1.68-10.54-1.44-27.22-2.98-54.47-4.87-81.67-.38-5.48,.9-8.18,6.55-9.09,11.79-1.91,22.11,2.38,26.13,13.92,3.83,11.01,5.18,22.87,7.61,34.37-.66,.1-1.34,.23-1.99,.33h.02Zm-25.68,52.44c4.13-5.1,7.73-8.44,9.95-12.54,7.44-13.73,9.73-28.87,8.36-44.1-.85-9.35-3.9-18.73-7.44-27.48-2.24-5.57-7.72-8.93-15.19-7.61,1.42,30.17,2.81,59.79,4.3,91.75l.02-.02Z"/>
    <path class="cls-1" d="M588.12,1233.01c-.9-20.13-1.8-40.26-2.71-60.4-.1-2.2-.78-4.63-.1-6.55,.68-1.94,2.74-3.4,4.18-5.06,1.47,1.73,4.16,3.45,4.21,5.24,.78,28.66,1.25,57.33,1.72,85.99,.03,1.63-.42,3.28-.66,4.91-1.01,6.66-3.17,12.47-10.87,13.8-7.75,1.35-14.67-1.47-17.13-8.5-4.42-12.59-8.74-25.63-10.16-38.79-2.08-19.13-1.63-38.53-1.96-57.81-.03-1.56,1.99-3.71,3.61-4.49,.78-.38,3.61,1.53,4.07,2.9,.97,2.81,1.2,5.93,1.37,8.93,1.25,22.04,1.84,44.13,3.92,66.08,.75,7.89,4.63,15.62,7.96,23.03,.88,1.96,5.38,3.78,7.54,3.21,1.96-.52,4.14-4.35,4.3-6.83,.52-8.53,.21-17.1,.21-25.66h.52l-.02,.02Z"/>
    <path class="cls-1" d="M702.19,1204.97c1.02-11.22,1.68-22.47,3.24-33.61,.9-6.47,3.95-12.45,11.44-13.47,8.01-1.09,13.33,3.57,16.07,10.39,2.55,6.31,5.15,13.13,5.29,19.77,.43,22.26-.14,44.53-.57,66.81-.05,2.91-.78,6.45-2.57,8.53-3.02,3.54-7.13,8.58-10.73,8.55-4.13-.05-10.54-4.14-11.84-7.91-3.99-11.57-6.62-23.72-8.58-35.84-1.21-7.53-.23-15.4-.23-23.11-.5-.03-1.02-.05-1.53-.09v-.02Zm6.05,3.59c2.51,14.06,5.25,31.09,8.83,47.96,.66,3.07,4.72,5.43,7.2,8.1,2.01-3.02,5.57-5.93,5.77-9.07,1.25-18.33,2.51-36.74,2.13-55.09-.19-9.69-3.31-19.4-5.97-28.87-.69-2.46-4.61-5.51-7.04-5.5-1.98,0-5.22,3.94-5.7,6.54-2.05,10.77-3.24,21.69-5.24,35.95l.02-.02Z"/>
    <path class="cls-1" d="M497.63,1164.36c-1.54,.87-2.41,1.75-3.36,1.84-10.16,.81-14.43,4.94-12.5,15.07,1.66,8.79,5.58,17.17,8.55,25.72,3.87,11.11,9.14,21.97,11.18,33.41,1.25,6.99-1.3,15.31-4.2,22.2-3.66,8.67-13.91,11.79-21.71,7.98-1.61-.8-2.53-3-3.76-4.54,1.86-.71,4.14-2.53,5.46-1.98,9.71,4.02,12.28-2.48,14.57-9.42,4.21-12.75,.24-24.38-4.75-36.02-4.79-11.1-9.73-22.23-13.23-33.74-2.51-8.27-.19-16.54,6.47-22.77,5.74-5.38,11.48-4.7,17.29,2.29v-.04Z"/>
    <path class="cls-1" d="M673.68,1260.16c0-8.93,.16-17.44-.03-25.96-.45-19.33-.92-38.67-1.79-57.99-.1-2.44-2.57-4.8-4.04-7.14-.24-.38-1.32-.42-1.37-.73-.23-1.47-.57-4.2-.26-4.28,5.46-1.51,10.96-2.93,16.56-3.76,1.09-.16,2.57,2.27,3.87,3.52-1.77,1.28-3.52,2.62-5.34,3.83-.62,.42-1.46,.56-3.31,1.23,1.42,29.81,2.86,59.82,4.32,90.34,1.47,.38,3.23,.42,4.46,1.23,1.42,.94,3.43,2.67,3.31,3.87-.16,1.39-2.27,3.59-3.62,3.66-5.74,.28-11.53,.1-17.27-.43-1.34-.12-2.46-2.34-3.69-3.61,1.4-1.04,2.71-2.29,4.25-3.05,1.13-.57,2.55-.52,3.97-.76v.03Z"/>
    <path class="cls-1" d="M523.17,1171.62c-5.15-2.31-8.74-3.9-12.31-5.51,4.04-1.7,7.96-3.85,12.14-4.94,3.68-.95,7.73-1.16,11.51-.76,2.24,.24,4.27,2.34,6.4,3.61-2.05,1.25-4.04,2.62-6.19,3.69-.88,.43-2.08,.24-3.1,.31,0,18.4-.21,36.52,.07,54.64,.19,12.4,1.35,24.8,1.42,37.19,.02,3.17-2.43,6.38-3.75,9.55-1.58-3.35-4.46-6.66-4.53-10.04-.52-26.44-.45-52.89-.68-79.35-.03-3.47-.8-6.92-.97-8.44l-.02,.05Z"/>
  </g>
</svg>